<mxfile host="app.diagrams.net" modified="2022-06-29T21:27:11.411Z" agent="5.0 (Windows NT 10.0; Win64; x64) AppleWebKit/537.36 (KHTML, like Gecko) Chrome/103.0.5060.53 Safari/537.36 Edg/103.0.1264.37" etag="GcN2IpyxiKcBMVcklo-k" compressed="false" version="19.0.3" type="device">
  <diagram id="eKaD7oeoBDBlw4IZ0RxL" name="Page-1">
    <mxGraphModel dx="1038" dy="570" grid="1" gridSize="10" guides="1" tooltips="1" connect="1" arrows="1" fold="1" page="1" pageScale="1" pageWidth="827" pageHeight="1169" math="0" shadow="0">
      <root>
        <mxCell id="0" />
        <mxCell id="1" parent="0" />
        <mxCell id="2" value="i + i + i" style="text;strokeColor=none;fillColor=none;align=center;verticalAlign=middle;rounded=0;fontStyle=0;fontFamily=Times New Roman;labelBackgroundColor=none;" parent="1" vertex="1">
          <mxGeometry x="190" y="320" width="60" height="30" as="geometry" />
        </mxCell>
        <mxCell id="3" value="i" style="text;strokeColor=none;fillColor=none;align=center;verticalAlign=middle;rounded=0;fontStyle=0;fontFamily=Times New Roman;labelBackgroundColor=none;" parent="1" vertex="1">
          <mxGeometry x="150" y="280" width="20" height="20" as="geometry" />
        </mxCell>
        <mxCell id="4" value="i" style="text;strokeColor=none;fillColor=none;align=center;verticalAlign=middle;rounded=0;fontStyle=0;fontFamily=Times New Roman;labelBackgroundColor=none;" parent="1" vertex="1">
          <mxGeometry x="210" y="280" width="20" height="20" as="geometry" />
        </mxCell>
        <mxCell id="5" value="i" style="text;strokeColor=none;fillColor=none;align=center;verticalAlign=middle;rounded=0;fontStyle=0;fontFamily=Times New Roman;labelBackgroundColor=none;" parent="1" vertex="1">
          <mxGeometry x="270" y="280" width="20" height="20" as="geometry" />
        </mxCell>
        <mxCell id="31" value="" style="edgeStyle=none;endArrow=none;endFill=0;fontStyle=0;fontFamily=Times New Roman;labelBackgroundColor=none;" parent="1" source="8" target="3" edge="1">
          <mxGeometry relative="1" as="geometry" />
        </mxCell>
        <mxCell id="8" value="F" style="text;strokeColor=none;fillColor=none;align=center;verticalAlign=middle;rounded=0;fontStyle=0;fontFamily=Times New Roman;labelBackgroundColor=none;" parent="1" vertex="1">
          <mxGeometry x="150" y="240" width="20" height="20" as="geometry" />
        </mxCell>
        <mxCell id="30" value="" style="edgeStyle=none;endArrow=none;endFill=0;fontStyle=0;fontFamily=Times New Roman;labelBackgroundColor=none;" parent="1" source="9" target="8" edge="1">
          <mxGeometry relative="1" as="geometry" />
        </mxCell>
        <mxCell id="9" value="T" style="text;strokeColor=none;fillColor=none;align=center;verticalAlign=middle;rounded=0;fontStyle=0;fontFamily=Times New Roman;labelBackgroundColor=none;" parent="1" vertex="1">
          <mxGeometry x="150" y="200" width="20" height="20" as="geometry" />
        </mxCell>
        <mxCell id="29" value="" style="edgeStyle=none;endArrow=none;endFill=0;fontStyle=0;fontFamily=Times New Roman;labelBackgroundColor=none;" parent="1" source="10" target="9" edge="1">
          <mxGeometry relative="1" as="geometry" />
        </mxCell>
        <mxCell id="10" value="E" style="text;strokeColor=none;fillColor=none;align=center;verticalAlign=middle;rounded=0;fontStyle=0;fontFamily=Times New Roman;labelBackgroundColor=none;" parent="1" vertex="1">
          <mxGeometry x="150" y="160" width="20" height="20" as="geometry" />
        </mxCell>
        <mxCell id="28" value="" style="edgeStyle=none;endArrow=none;endFill=0;fontStyle=0;fontFamily=Times New Roman;labelBackgroundColor=none;" parent="1" source="12" target="4" edge="1">
          <mxGeometry relative="1" as="geometry" />
        </mxCell>
        <mxCell id="12" value="F" style="text;strokeColor=none;fillColor=none;align=center;verticalAlign=middle;rounded=0;fontStyle=0;fontFamily=Times New Roman;labelBackgroundColor=none;" parent="1" vertex="1">
          <mxGeometry x="210" y="200" width="20" height="20" as="geometry" />
        </mxCell>
        <mxCell id="27" value="" style="edgeStyle=none;endArrow=none;endFill=0;fontStyle=0;fontFamily=Times New Roman;labelBackgroundColor=none;" parent="1" source="13" target="12" edge="1">
          <mxGeometry relative="1" as="geometry" />
        </mxCell>
        <mxCell id="13" value="T" style="text;strokeColor=none;fillColor=none;align=center;verticalAlign=middle;rounded=0;fontStyle=0;fontFamily=Times New Roman;labelBackgroundColor=none;" parent="1" vertex="1">
          <mxGeometry x="210" y="160" width="20" height="20" as="geometry" />
        </mxCell>
        <mxCell id="26" value="" style="edgeStyle=none;endArrow=none;endFill=0;fontStyle=0;fontFamily=Times New Roman;labelBackgroundColor=none;" parent="1" source="14" target="5" edge="1">
          <mxGeometry relative="1" as="geometry" />
        </mxCell>
        <mxCell id="14" value="F" style="text;strokeColor=none;fillColor=none;align=center;verticalAlign=middle;rounded=0;fontStyle=0;fontFamily=Times New Roman;labelBackgroundColor=none;" parent="1" vertex="1">
          <mxGeometry x="270" y="160" width="20" height="20" as="geometry" />
        </mxCell>
        <mxCell id="34" value="" style="edgeStyle=none;endArrow=none;endFill=0;fontStyle=0;fontFamily=Times New Roman;labelBackgroundColor=none;" parent="1" source="15" target="14" edge="1">
          <mxGeometry relative="1" as="geometry" />
        </mxCell>
        <mxCell id="15" value="T" style="text;strokeColor=none;fillColor=none;align=center;verticalAlign=middle;rounded=0;fontStyle=0;fontFamily=Times New Roman;labelBackgroundColor=none;" parent="1" vertex="1">
          <mxGeometry x="270" y="120" width="20" height="20" as="geometry" />
        </mxCell>
        <mxCell id="32" value="" style="edgeStyle=none;endArrow=none;endFill=0;fontStyle=0;fontFamily=Times New Roman;labelBackgroundColor=none;" parent="1" source="16" target="10" edge="1">
          <mxGeometry relative="1" as="geometry" />
        </mxCell>
        <mxCell id="33" value="" style="edgeStyle=none;endArrow=none;endFill=0;fontStyle=0;fontFamily=Times New Roman;labelBackgroundColor=none;" parent="1" source="16" target="13" edge="1">
          <mxGeometry relative="1" as="geometry" />
        </mxCell>
        <mxCell id="16" value="E" style="text;strokeColor=none;fillColor=none;align=center;verticalAlign=middle;rounded=0;fontStyle=0;fontFamily=Times New Roman;labelBackgroundColor=none;" parent="1" vertex="1">
          <mxGeometry x="180" y="120" width="20" height="20" as="geometry" />
        </mxCell>
        <mxCell id="17" value="+" style="text;strokeColor=none;fillColor=none;align=center;verticalAlign=middle;rounded=0;fontStyle=0;fontFamily=Times New Roman;labelBackgroundColor=none;" parent="1" vertex="1">
          <mxGeometry x="225" y="120" width="20" height="20" as="geometry" />
        </mxCell>
        <mxCell id="19" value="+" style="text;strokeColor=none;fillColor=none;align=center;verticalAlign=middle;rounded=0;fontStyle=0;fontFamily=Times New Roman;labelBackgroundColor=none;" parent="1" vertex="1">
          <mxGeometry x="180" y="160" width="20" height="20" as="geometry" />
        </mxCell>
        <mxCell id="36" value="" style="edgeStyle=none;endArrow=none;endFill=0;fontStyle=0;fontFamily=Times New Roman;labelBackgroundColor=none;" parent="1" source="35" target="16" edge="1">
          <mxGeometry relative="1" as="geometry" />
        </mxCell>
        <mxCell id="37" value="" style="edgeStyle=none;endArrow=none;endFill=0;fontStyle=0;fontFamily=Times New Roman;labelBackgroundColor=none;" parent="1" source="35" target="15" edge="1">
          <mxGeometry relative="1" as="geometry" />
        </mxCell>
        <mxCell id="35" value="E" style="text;strokeColor=none;fillColor=none;align=center;verticalAlign=middle;rounded=0;fontStyle=0;fontFamily=Times New Roman;labelBackgroundColor=none;" parent="1" vertex="1">
          <mxGeometry x="225" y="60" width="20" height="20" as="geometry" />
        </mxCell>
      </root>
    </mxGraphModel>
  </diagram>
</mxfile>
